{
    "asset" : {
        "generator" : "Khronos glTF Blender I/O v1.6.16",
        "version" : "2.0"
    },
    "scene" : 0,
    "scenes" : [
        {
            "name" : "Scene",
            "nodes" : [
                0,
                1,
                2,
                3,
                4,
                5,
                6,
                7,
                8
            ]
        }
    ],
    "nodes" : [
        {
            "mesh" : 0,
            "name" : "Plane"
        },
        {
            "mesh" : 1,
            "name" : "hello"
        },
        {
            "mesh" : 2,
            "name" : "Icosphere"
        },
        {
            "mesh" : 3,
            "name" : "Icosphere.001"
        },
        {
            "mesh" : 4,
            "name" : "Icosphere.002"
        },
        {
            "mesh" : 5,
            "name" : "Icosphere.003"
        },
        {
            "mesh" : 6,
            "name" : "Icosphere.004"
        },
        {
            "mesh" : 7,
            "name" : "Icosphere.005"
        },
        {
            "mesh" : 8,
            "name" : "Icosphere.006"
        }
    ],
    "materials" : [
        {
            "doubleSided" : true,
            "name" : "Material.001",
            "pbrMetallicRoughness" : {
                "baseColorFactor" : [
                    0.8000000715255737,
                    0.12152329832315445,
                    0.00109984097070992,
                    1
                ],
                "metallicFactor" : 0,
                "roughnessFactor" : 0.5
            }
        }
    ],
    "meshes" : [
        {
            "name" : "Plane",
            "primitives" : [
                {
                    "attributes" : {
                        "POSITION" : 0,
                        "NORMAL" : 1,
                        "TEXCOORD_0" : 2
                    },
                    "indices" : 3,
                    "material" : 0
                }
            ]
        },
        {
            "name" : "hello",
            "primitives" : [
                {
                    "attributes" : {
                        "POSITION" : 4,
                        "NORMAL" : 5,
                        "TEXCOORD_0" : 6
                    },
                    "indices" : 7,
                    "material" : 0
                }
            ]
        },
        {
            "name" : "Icosphere",
            "primitives" : [
                {
                    "attributes" : {
                        "POSITION" : 8,
                        "NORMAL" : 9,
                        "TEXCOORD_0" : 10
                    },
                    "indices" : 11,
                    "material" : 0
                }
            ]
        },
        {
            "name" : "Icosphere.001",
            "primitives" : [
                {
                    "attributes" : {
                        "POSITION" : 12,
                        "NORMAL" : 13,
                        "TEXCOORD_0" : 14
                    },
                    "indices" : 15,
                    "material" : 0
                }
            ]
        },
        {
            "name" : "Icosphere.002",
            "primitives" : [
                {
                    "attributes" : {
                        "POSITION" : 16,
                        "NORMAL" : 17,
                        "TEXCOORD_0" : 18
                    },
                    "indices" : 19,
                    "material" : 0
                }
            ]
        },
        {
            "name" : "Icosphere.003",
            "primitives" : [
                {
                    "attributes" : {
                        "POSITION" : 20,
                        "NORMAL" : 21,
                        "TEXCOORD_0" : 22
                    },
                    "indices" : 23,
                    "material" : 0
                }
            ]
        },
        {
            "name" : "Icosphere.004",
            "primitives" : [
                {
                    "attributes" : {
                        "POSITION" : 24,
                        "NORMAL" : 25,
                        "TEXCOORD_0" : 26
                    },
                    "indices" : 27,
                    "material" : 0
                }
            ]
        },
        {
            "name" : "Icosphere.005",
            "primitives" : [
                {
                    "attributes" : {
                        "POSITION" : 28,
                        "NORMAL" : 29,
                        "TEXCOORD_0" : 30
                    },
                    "indices" : 31,
                    "material" : 0
                }
            ]
        },
        {
            "name" : "Icosphere.006",
            "primitives" : [
                {
                    "attributes" : {
                        "POSITION" : 32,
                        "NORMAL" : 33,
                        "TEXCOORD_0" : 34
                    },
                    "indices" : 35,
                    "material" : 0
                }
            ]
        }
    ],
    "accessors" : [
        {
            "bufferView" : 0,
            "componentType" : 5126,
            "count" : 4,
            "max" : [
                6.2307820320129395,
                0,
                6.2307820320129395
            ],
            "min" : [
                -6.2307820320129395,
                0,
                -6.2307820320129395
            ],
            "type" : "VEC3"
        },
        {
            "bufferView" : 1,
            "componentType" : 5126,
            "count" : 4,
            "type" : "VEC3"
        },
        {
            "bufferView" : 2,
            "componentType" : 5126,
            "count" : 4,
            "type" : "VEC2"
        },
        {
            "bufferView" : 3,
            "componentType" : 5123,
            "count" : 6,
            "type" : "SCALAR"
        },
        {
            "bufferView" : 4,
            "componentType" : 5126,
            "count" : 3705,
            "max" : [
                3.5796287059783936,
                1.3326764106750488,
                0.07816289365291595
            ],
            "min" : [
                -2.7496073246002197,
                -0.017586642876267433,
                -0.07816283404827118
            ],
            "type" : "VEC3"
        },
        {
            "bufferView" : 5,
            "componentType" : 5126,
            "count" : 3705,
            "type" : "VEC3"
        },
        {
            "bufferView" : 6,
            "componentType" : 5126,
            "count" : 3705,
            "type" : "VEC2"
        },
        {
            "bufferView" : 7,
            "componentType" : 5123,
            "count" : 7488,
            "type" : "SCALAR"
        },
        {
            "bufferView" : 8,
            "componentType" : 5126,
            "count" : 240,
            "max" : [
                -1.7947572469711304,
                1.0430028438568115,
                0.9254179000854492
            ],
            "min" : [
                -2.419278144836426,
                0.3863435983657837,
                0.26875874400138855
            ],
            "type" : "VEC3"
        },
        {
            "bufferView" : 9,
            "componentType" : 5126,
            "count" : 240,
            "type" : "VEC3"
        },
        {
            "bufferView" : 10,
            "componentType" : 5126,
            "count" : 240,
            "type" : "VEC2"
        },
        {
            "bufferView" : 11,
            "componentType" : 5123,
            "count" : 240,
            "type" : "SCALAR"
        },
        {
            "bufferView" : 12,
            "componentType" : 5126,
            "count" : 240,
            "max" : [
                -1.05855393409729,
                0.36473244428634644,
                1.5670158863067627
            ],
            "min" : [
                -1.4132483005523682,
                -0.008214876055717468,
                1.1940686702728271
            ],
            "type" : "VEC3"
        },
        {
            "bufferView" : 13,
            "componentType" : 5126,
            "count" : 240,
            "type" : "VEC3"
        },
        {
            "bufferView" : 14,
            "componentType" : 5126,
            "count" : 240,
            "type" : "VEC2"
        },
        {
            "bufferView" : 15,
            "componentType" : 5123,
            "count" : 240,
            "type" : "SCALAR"
        },
        {
            "bufferView" : 16,
            "componentType" : 5126,
            "count" : 240,
            "max" : [
                -0.7535116672515869,
                0.7732264995574951,
                1.1882795095443726
            ],
            "min" : [
                -1.394458293914795,
                0.09929630160331726,
                0.5143493413925171
            ],
            "type" : "VEC3"
        },
        {
            "bufferView" : 17,
            "componentType" : 5126,
            "count" : 240,
            "type" : "VEC3"
        },
        {
            "bufferView" : 18,
            "componentType" : 5126,
            "count" : 240,
            "type" : "VEC2"
        },
        {
            "bufferView" : 19,
            "componentType" : 5123,
            "count" : 240,
            "type" : "SCALAR"
        },
        {
            "bufferView" : 20,
            "componentType" : 5126,
            "count" : 240,
            "max" : [
                -0.20903249084949493,
                1.2016479969024658,
                1.2888298034667969
            ],
            "min" : [
                -0.680763304233551,
                0.705641508102417,
                0.7928233742713928
            ],
            "type" : "VEC3"
        },
        {
            "bufferView" : 21,
            "componentType" : 5126,
            "count" : 240,
            "type" : "VEC3"
        },
        {
            "bufferView" : 22,
            "componentType" : 5126,
            "count" : 240,
            "type" : "VEC2"
        },
        {
            "bufferView" : 23,
            "componentType" : 5123,
            "count" : 240,
            "type" : "SCALAR"
        },
        {
            "bufferView" : 24,
            "componentType" : 5126,
            "count" : 240,
            "max" : [
                -0.4976884722709656,
                1.7592092752456665,
                0.6585264801979065
            ],
            "min" : [
                -1.0200347900390625,
                1.2099825143814087,
                0.10929983854293823
            ],
            "type" : "VEC3"
        },
        {
            "bufferView" : 25,
            "componentType" : 5126,
            "count" : 240,
            "type" : "VEC3"
        },
        {
            "bufferView" : 26,
            "componentType" : 5126,
            "count" : 240,
            "type" : "VEC2"
        },
        {
            "bufferView" : 27,
            "componentType" : 5123,
            "count" : 240,
            "type" : "SCALAR"
        },
        {
            "bufferView" : 28,
            "componentType" : 5126,
            "count" : 240,
            "max" : [
                -0.039727091789245605,
                1.5025007724761963,
                0.5725933313369751
            ],
            "min" : [
                -0.44550642371177673,
                1.0758397579193115,
                0.14593231678009033
            ],
            "type" : "VEC3"
        },
        {
            "bufferView" : 29,
            "componentType" : 5126,
            "count" : 240,
            "type" : "VEC3"
        },
        {
            "bufferView" : 30,
            "componentType" : 5126,
            "count" : 240,
            "type" : "VEC2"
        },
        {
            "bufferView" : 31,
            "componentType" : 5123,
            "count" : 240,
            "type" : "SCALAR"
        },
        {
            "bufferView" : 32,
            "componentType" : 5126,
            "count" : 240,
            "max" : [
                0.3607653081417084,
                0.5890706181526184,
                1.0287344455718994
            ],
            "min" : [
                -0.16158106923103333,
                0.03984391689300537,
                0.4795078635215759
            ],
            "type" : "VEC3"
        },
        {
            "bufferView" : 33,
            "componentType" : 5126,
            "count" : 240,
            "type" : "VEC3"
        },
        {
            "bufferView" : 34,
            "componentType" : 5126,
            "count" : 240,
            "type" : "VEC2"
        },
        {
            "bufferView" : 35,
            "componentType" : 5123,
            "count" : 240,
            "type" : "SCALAR"
        }
    ],
    "bufferViews" : [
        {
            "buffer" : 0,
            "byteLength" : 48,
            "byteOffset" : 0
        },
        {
            "buffer" : 0,
            "byteLength" : 48,
            "byteOffset" : 48
        },
        {
            "buffer" : 0,
            "byteLength" : 32,
            "byteOffset" : 96
        },
        {
            "buffer" : 0,
            "byteLength" : 12,
            "byteOffset" : 128
        },
        {
            "buffer" : 0,
            "byteLength" : 44460,
            "byteOffset" : 140
        },
        {
            "buffer" : 0,
            "byteLength" : 44460,
            "byteOffset" : 44600
        },
        {
            "buffer" : 0,
            "byteLength" : 29640,
            "byteOffset" : 89060
        },
        {
            "buffer" : 0,
            "byteLength" : 14976,
            "byteOffset" : 118700
        },
        {
            "buffer" : 0,
            "byteLength" : 2880,
            "byteOffset" : 133676
        },
        {
            "buffer" : 0,
            "byteLength" : 2880,
            "byteOffset" : 136556
        },
        {
            "buffer" : 0,
            "byteLength" : 1920,
            "byteOffset" : 139436
        },
        {
            "buffer" : 0,
            "byteLength" : 480,
            "byteOffset" : 141356
        },
        {
            "buffer" : 0,
            "byteLength" : 2880,
            "byteOffset" : 141836
        },
        {
            "buffer" : 0,
            "byteLength" : 2880,
            "byteOffset" : 144716
        },
        {
            "buffer" : 0,
            "byteLength" : 1920,
            "byteOffset" : 147596
        },
        {
            "buffer" : 0,
            "byteLength" : 480,
            "byteOffset" : 149516
        },
        {
            "buffer" : 0,
            "byteLength" : 2880,
            "byteOffset" : 149996
        },
        {
            "buffer" : 0,
            "byteLength" : 2880,
            "byteOffset" : 152876
        },
        {
            "buffer" : 0,
            "byteLength" : 1920,
            "byteOffset" : 155756
        },
        {
            "buffer" : 0,
            "byteLength" : 480,
            "byteOffset" : 157676
        },
        {
            "buffer" : 0,
            "byteLength" : 2880,
            "byteOffset" : 158156
        },
        {
            "buffer" : 0,
            "byteLength" : 2880,
            "byteOffset" : 161036
        },
        {
            "buffer" : 0,
            "byteLength" : 1920,
            "byteOffset" : 163916
        },
        {
            "buffer" : 0,
            "byteLength" : 480,
            "byteOffset" : 165836
        },
        {
            "buffer" : 0,
            "byteLength" : 2880,
            "byteOffset" : 166316
        },
        {
            "buffer" : 0,
            "byteLength" : 2880,
            "byteOffset" : 169196
        },
        {
            "buffer" : 0,
            "byteLength" : 1920,
            "byteOffset" : 172076
        },
        {
            "buffer" : 0,
            "byteLength" : 480,
            "byteOffset" : 173996
        },
        {
            "buffer" : 0,
            "byteLength" : 2880,
            "byteOffset" : 174476
        },
        {
            "buffer" : 0,
            "byteLength" : 2880,
            "byteOffset" : 177356
        },
        {
            "buffer" : 0,
            "byteLength" : 1920,
            "byteOffset" : 180236
        },
        {
            "buffer" : 0,
            "byteLength" : 480,
            "byteOffset" : 182156
        },
        {
            "buffer" : 0,
            "byteLength" : 2880,
            "byteOffset" : 182636
        },
        {
            "buffer" : 0,
            "byteLength" : 2880,
            "byteOffset" : 185516
        },
        {
            "buffer" : 0,
            "byteLength" : 1920,
            "byteOffset" : 188396
        },
        {
            "buffer" : 0,
            "byteLength" : 480,
            "byteOffset" : 190316
        }
    ],
    "buffers" : [
        {
            "byteLength" : 190796,
            "uri" : "data:application/octet-stream;base64,"
        }
    ]
}
